<svg xmlns="http://www.w3.org/2000/svg" xmlns:xlink="http://www.w3.org/1999/xlink" width="52.661" height="37.637" viewBox="0 0 52.661 37.637">
  <defs>
    <clipPath id="clip-path">
      <rect id="Rectangle_1486" data-name="Rectangle 1486" width="52.661" height="37.637" fill="#323639"/>
    </clipPath>
  </defs>
  <g id="Group_5880" data-name="Group 5880" opacity="0.35">
    <g id="Group_5879" data-name="Group 5879" transform="translate(0)" clip-path="url(#clip-path)">
      <path id="Path_18141" data-name="Path 18141" d="M701.831,37.584a23.092,23.092,0,0,1-8.668-1.259c-9.121-3.373-14.289-14.072-11.1-23.261,2.542-7.33,7.714-11.629,15.4-12.879A4.5,4.5,0,0,0,698.068,0h3.764V5.637c-.467,0-.934.015-1.4,0A13.2,13.2,0,0,0,687.1,16h10.92v5.607H687.148a5.519,5.519,0,0,0,.1.63,12.649,12.649,0,0,0,8.837,9.061,31.357,31.357,0,0,0,5.746.647Z" transform="translate(-649.17)" fill="#323639"/>
      <path id="Path_18142" data-name="Path 18142" d="M20.663,0V5.706A13.308,13.308,0,0,0,8.677,10.373a12.972,12.972,0,0,0-3.07,8.559c-.065,6,5.125,13.8,15.008,13.054v5.651c-1.55-.093-3.082-.072-4.579-.292a18.769,18.769,0,0,1-6.4-34.987A19.385,19.385,0,0,1,16.2.2a6.148,6.148,0,0,0,.7-.2Z" transform="translate(0.007)" fill="#323639"/>
    </g>
  </g>
</svg>
