<svg xmlns="http://www.w3.org/2000/svg" xmlns:xlink="http://www.w3.org/1999/xlink" width="51.331" height="51.258" viewBox="0 0 51.331 51.258">
  <defs>
    <clipPath id="clip-path">
      <rect id="Rectangle_1485" data-name="Rectangle 1485" width="51.331" height="51.258" fill="#323639"/>
    </clipPath>
  </defs>
  <g id="Group_5878" data-name="Group 5878" transform="translate(0 0)" opacity="0.35">
    <g id="Group_5877" data-name="Group 5877" transform="translate(0 0)" clip-path="url(#clip-path)">
      <path id="Path_18137" data-name="Path 18137" d="M333.057,355.84v-.514c0-4.778.02-9.556-.009-14.334a8.263,8.263,0,0,1,2.246-6.032,8.029,8.029,0,0,1,5.9-2.573c2.446-.031,4.892-.023,7.337,0a8.23,8.23,0,0,1,7.913,6.621,8.045,8.045,0,0,1,.124,1.448q.013,7.5.006,15v.4h-5.335v-5.278H338.433v5.274Zm5.389-10.679h12.781c0-1.515-.029-3,.008-4.485a2.93,2.93,0,0,0-2.956-2.954q-3.461-.02-6.922,0a2.916,2.916,0,0,0-2.939,2.928c.035,1.373.006,2.75.008,4.125,0,.123.012.242.02.389" transform="translate(-305.242 -304.614)" fill="#323639"/>
      <path id="Path_18138" data-name="Path 18138" d="M.241.092H5.592V.617c0,4.819.029,9.639-.014,14.458A3.052,3.052,0,0,0,8.76,18.255c2.208-.052,4.418-.028,6.628-.008A3,3,0,0,0,18.435,15.2c-.033-4.861-.011-9.722-.011-14.583V.1h5.321c.008.147.023.293.023.438V15.417a8.172,8.172,0,0,1-8.155,8.163q-3.648.015-7.3,0A8.162,8.162,0,0,1,.4,16.94a9.428,9.428,0,0,1-.157-1.65Q.231,7.955.241.622V.092" transform="translate(-0.22 -0.084)" fill="#323639"/>
      <path id="Path_18139" data-name="Path 18139" d="M23.535,332.515v5.34H8.418a2.907,2.907,0,0,0-3.039,2.958q-.047,3.458,0,6.917a2.9,2.9,0,0,0,3.056,2.941H23.514v5.339H8.27a8.173,8.173,0,0,1-8.085-6.792,10.605,10.605,0,0,1-.161-1.734c-.018-2.306-.056-4.613,0-6.917a8.256,8.256,0,0,1,7.1-7.974,8.839,8.839,0,0,1,1.121-.074q7.421-.007,14.843,0Z" transform="translate(0.001 -304.753)" fill="#323639"/>
      <path id="Path_18140" data-name="Path 18140" d="M342.145,11.726l14.833,11.739c-.186.015-.287.031-.388.031-2.043,0-4.086.007-6.129-.008a1.043,1.043,0,0,1-.593-.21q-5.336-4.2-10.658-8.415c-.093-.073-.194-.136-.362-.254v8.86H333.5V.029h5.319V8.887c.5-.388.911-.706,1.319-1.026L349.99.109a.514.514,0,0,1,.3-.11q3.273-.006,6.545,0c.022,0,.044.023.13.073L342.145,11.722" transform="translate(-305.656 0.001)" fill="#323639"/>
    </g>
  </g>
</svg>
