<svg xmlns="http://www.w3.org/2000/svg" xmlns:xlink="http://www.w3.org/1999/xlink" width="112.432" height="45.624" viewBox="0 0 112.432 45.624">
  <defs>
    <clipPath id="clip-path">
      <rect id="Rectangle_1484" data-name="Rectangle 1484" width="112.432" height="45.624" transform="translate(0)" fill="#323639"/>
    </clipPath>
  </defs>
  <g id="Group_5875" data-name="Group 5875" opacity="0.35" clip-path="url(#clip-path)">
    <path id="Path_18131" data-name="Path 18131" d="M28.775,45.645V18.507h5.318v21.62c.082.006.146.016.214.016,4.049,0,8.1.009,12.147-.005a15.384,15.384,0,0,0,5.394-1.114,18.425,18.425,0,0,0,7.5-5.1A16.069,16.069,0,0,0,63.054,26.3a19.341,19.341,0,0,0,.214-6.157,15.471,15.471,0,0,0-4.905-9.7A19.389,19.389,0,0,0,48.387,5.5a9.285,9.285,0,0,0-1.634-.138Q26.086,5.354,5.412,5.354h-.27V45.633H0V.034H45.31a26.372,26.372,0,0,1,8.746,1.38A21,21,0,0,1,65.2,10.362a23.5,23.5,0,0,1,3.071,7.367.611.611,0,0,0,.049.1c.314-.5.616-.98.917-1.461L79.313.239A.377.377,0,0,1,79.679.03c1.776.007,3.553,0,5.329,0h.245c-.04.085-.063.145-.1.2Q76.578,14.96,67.993,29.687a58.383,58.383,0,0,1-3.535,5.5,28.6,28.6,0,0,1-7.177,6.963,20.855,20.855,0,0,1-8.107,3.2,22.556,22.556,0,0,1-3.735.288q-8.2-.005-16.41,0Z" transform="translate(0 -0.029)" fill="#323639"/>
    <path id="Path_18132" data-name="Path 18132" d="M185.245,175.111h5.492v14.165a1.688,1.688,0,0,0,.171.019h5.085a7.519,7.519,0,0,0,3.73-1.079,10.242,10.242,0,0,0,5.208-6.723,9.287,9.287,0,0,0-2.738-9.177,10.407,10.407,0,0,0-5.57-2.873,10.761,10.761,0,0,0-1.9-.165q-16.566-.015-33.131-.008h-.256v5.822h14.54v5.491H156V163.916h.238q19.352,0,38.7.005a15.592,15.592,0,0,1,10.313,3.674,14.642,14.642,0,0,1,5.142,9.149,15.235,15.235,0,0,1-12.191,17.66,12.254,12.254,0,0,1-2.382.206c-3.449.021-6.9.01-10.348.01h-.231Z" transform="translate(-149.073 -156.634)" fill="#323639"/>
    <path id="Path_18133" data-name="Path 18133" d="M1414.389,152.77h-27.7v-5.307h17.938l-10.307-16.774c-.075.13-.134.229-.192.331q-8.324,14.583-16.643,29.168a.39.39,0,0,1-.4.23c-2.3-.008-4.606,0-6.906,0h-.3l24.432-40.284,20.073,32.636" transform="translate(-1309.046 -114.792)" fill="#323639"/>
    <path id="Path_18134" data-name="Path 18134" d="M1944.1,40.106l-2.428-4.1L1920.409.264c-.041-.069-.08-.138-.138-.236.09-.007.152-.017.214-.017q2.72,0,5.439-.006c.181,0,.243.094.322.214q4.991,8.084,9.984,16.166,5.551,8.988,11.107,17.974a.38.38,0,0,1,.007.468c-1.036,1.688-2.059,3.383-3.088,5.076a1.806,1.806,0,0,1-.158.194Z" transform="translate(-1834.989 -0.005)" fill="#323639"/>
    <path id="Path_18135" data-name="Path 18135" d="M161.336,597.153v14.012h-5.31V591.844h19.868v5.309Z" transform="translate(-149.096 -565.559)" fill="#323639"/>
    <path id="Path_18136" data-name="Path 18136" d="M1779.684,902.74a1.519,1.519,0,0,1-.091.214q-1.555,2.571-3.106,5.142a.3.3,0,0,1-.3.168q-13.876-.006-27.752,0c-.065,0-.131-.006-.214-.01v-5.493h31.161c.107,0,.207-.009.31-.013l-.006-.008" transform="translate(-1670.577 -862.647)" fill="#323639"/>
  </g>
</svg>
