<svg id="logo-white-full" xmlns="http://www.w3.org/2000/svg" width="124.451" height="36.03" viewBox="0 0 124.451 36.03">
  <path id="Path_21745" data-name="Path 21745" d="M28.934,12.052,16.683,0,0,16.434,16.683,32.868,33.366,16.434ZM13.272,25.7,19.7,19.372,18.4,18.1l-6.424,6.325L7.3,19.8,3.86,16.434,16.683,3.81l3.411,3.362L13.7,13.5l1.295,1.27,6.424-6.325,4.706,4.631,3.386,3.362L16.683,29.058Z" fill="#fff"/>
  <path id="Path_21746" data-name="Path 21746" d="M153.9,113.585v-4.532h-5.08v4.532H147.1V103.6h1.718v4.084h5.08V103.6h1.718v9.985Z" transform="translate(-110.472 -77.803)" fill="#fff"/>
  <path id="Path_21747" data-name="Path 21747" d="M194.4,117.635a4.582,4.582,0,0,0-.125-1.021,2.48,2.48,0,0,0-.349-.822,1.583,1.583,0,0,0-.6-.548,1.876,1.876,0,0,0-.872-.2,1.671,1.671,0,0,0-.822.2,1.384,1.384,0,0,0-.548.523,2.549,2.549,0,0,0-.324.8,4.223,4.223,0,0,0-.1,1,4.582,4.582,0,0,0,.1,1.021,2.465,2.465,0,0,0,.324.822,1.583,1.583,0,0,0,.6.548,1.847,1.847,0,0,0,.847.2,1.772,1.772,0,0,0,.847-.2,1.641,1.641,0,0,0,.573-.523,2.069,2.069,0,0,0,.324-.8,3.12,3.12,0,0,0,.125-1m1.718-.05a5.024,5.024,0,0,1-.2,1.345,3.507,3.507,0,0,1-.647,1.245,3.307,3.307,0,0,1-1.12.9,3.61,3.61,0,0,1-1.619.349,3.461,3.461,0,0,1-1.619-.349,3,3,0,0,1-1.1-.9,3.156,3.156,0,0,1-.623-1.22,4.638,4.638,0,0,1,0-2.689,3.54,3.54,0,0,1,.623-1.22,3,3,0,0,1,1.1-.9,3.932,3.932,0,0,1,3.237,0,3.423,3.423,0,0,1,1.818,2.092,8.232,8.232,0,0,1,.149,1.345" transform="translate(-141.939 -85.464)" fill="#fff"/>
  <path id="Path_21748" data-name="Path 21748" d="M229.752,115a4.492,4.492,0,0,1,1-.822,2.6,2.6,0,0,1,1.37-.349,2.334,2.334,0,0,1,.971.174,1.463,1.463,0,0,1,.647.5,1.776,1.776,0,0,1,.349.722,3.581,3.581,0,0,1,.125.921v5.129h-1.618v-4.806a1.716,1.716,0,0,0-.224-.946.9.9,0,0,0-.8-.349,1.34,1.34,0,0,0-.548.1,1.912,1.912,0,0,0-.448.249,1.592,1.592,0,0,0-.373.324c-.125.125-.2.224-.274.3v5.1h-1.618v-4.806a1.526,1.526,0,0,0-.249-.946.871.871,0,0,0-.772-.324,1.183,1.183,0,0,0-.6.149,3.422,3.422,0,0,0-.5.324,4.567,4.567,0,0,0-.349.349c-.1.124-.149.2-.2.249v5H224v-7.271h1.594v.971c.1-.1.2-.224.324-.349a2.611,2.611,0,0,1,.473-.374,2.4,2.4,0,0,1,.623-.3,2.843,2.843,0,0,1,.822-.124,1.973,1.973,0,0,1,1.22.324,1.792,1.792,0,0,1,.7.872" transform="translate(-168.224 -85.464)" fill="#fff"/>
  <path id="Path_21749" data-name="Path 21749" d="M276.13,117.039a2.707,2.707,0,0,0-.1-.647,1.84,1.84,0,0,0-.249-.548,1.63,1.63,0,0,0-.448-.374,1.52,1.52,0,0,0-.7-.124,1.452,1.452,0,0,0-1.17.473,2.5,2.5,0,0,0-.548,1.245h3.212Zm-3.262,1.12a5.09,5.09,0,0,0,.149.921,2.627,2.627,0,0,0,.374.747,1.8,1.8,0,0,0,1.544.672,3.329,3.329,0,0,0,1.245-.2c.324-.149.548-.249.722-.349l.573,1.1a2.226,2.226,0,0,0-.4.224,3.882,3.882,0,0,1-.548.249c-.224.075-.473.124-.747.2a5.5,5.5,0,0,1-.971.075,4.546,4.546,0,0,1-1.594-.274,3.256,3.256,0,0,1-1.17-.8,3.472,3.472,0,0,1-.7-1.22,5.141,5.141,0,0,1-.249-1.544,4.323,4.323,0,0,1,.249-1.519,3.566,3.566,0,0,1,.722-1.2,3.369,3.369,0,0,1,1.1-.772,3.663,3.663,0,0,1,1.394-.274,3.518,3.518,0,0,1,1.419.274,2.407,2.407,0,0,1,1,.8,3.279,3.279,0,0,1,.548,1.27,6.2,6.2,0,0,1,.075,1.693h-4.731Z" transform="translate(-203.596 -85.764)" fill="#fff"/>
  <path id="Path_21750" data-name="Path 21750" d="M307.479,119.354a2.006,2.006,0,0,1-.747,1.668,3.166,3.166,0,0,1-2.042.6,4.443,4.443,0,0,1-1.519-.224,5.906,5.906,0,0,1-.971-.473l.6-1.145a5.285,5.285,0,0,0,.7.373,2.648,2.648,0,0,0,1.121.224,1.9,1.9,0,0,0,1-.224.71.71,0,0,0,.349-.622.611.611,0,0,0-.125-.374,1.442,1.442,0,0,0-.349-.3,5.61,5.61,0,0,0-.548-.274c-.224-.1-.448-.2-.722-.324s-.523-.249-.747-.374a3.51,3.51,0,0,1-.573-.448,1.622,1.622,0,0,1-.374-.573,2.232,2.232,0,0,1-.125-.747,2.1,2.1,0,0,1,.174-.871,1.756,1.756,0,0,1,.523-.672,2.424,2.424,0,0,1,.8-.423,3.589,3.589,0,0,1,1.071-.149,4.28,4.28,0,0,1,.847.075,3.437,3.437,0,0,1,.647.174,3,3,0,0,1,.473.2c.125.075.224.124.3.174l-.647,1.121a4.565,4.565,0,0,0-.622-.324,2.334,2.334,0,0,0-.971-.174,1.573,1.573,0,0,0-.847.2.708.708,0,0,0-.274.573.612.612,0,0,0,.125.374.9.9,0,0,0,.324.274,4.271,4.271,0,0,0,.473.224c.174.075.373.149.573.224q.448.187.822.374a4.509,4.509,0,0,1,.672.448,1.717,1.717,0,0,1,.448.6,1.67,1.67,0,0,1,.174.822" transform="translate(-226.952 -85.614)" fill="#fff"/>
  <path id="Path_21751" data-name="Path 21751" d="M156.655,30.27a4.282,4.282,0,0,1-.448,1.942,4.858,4.858,0,0,1-1.22,1.544,5.477,5.477,0,0,1-1.892,1,8.324,8.324,0,0,1-2.415.349,8.613,8.613,0,0,1-3.386-.672,8.684,8.684,0,0,1-1.1-.6,6.866,6.866,0,0,1-.7-.548l1.1-1.519c.1.1.274.224.473.4a6.68,6.68,0,0,0,.822.548,6.276,6.276,0,0,0,1.22.448,6.4,6.4,0,0,0,1.618.2,4.368,4.368,0,0,0,1.544-.249,4.116,4.116,0,0,0,1.17-.672,2.827,2.827,0,0,0,.747-.971,2.641,2.641,0,0,0,.249-1.145,2.852,2.852,0,0,0-.349-1.419,3.858,3.858,0,0,0-.946-1.071,8.932,8.932,0,0,0-1.345-.872c-.5-.249-1.021-.523-1.544-.772-.548-.274-1.071-.548-1.594-.847a6.362,6.362,0,0,1-1.345-1.021,4.8,4.8,0,0,1-.946-1.37,4.315,4.315,0,0,1-.349-1.868,4,4,0,0,1,.448-1.942,4.4,4.4,0,0,1,1.17-1.444,5.019,5.019,0,0,1,1.693-.9,6.655,6.655,0,0,1,1.992-.3,10.127,10.127,0,0,1,1.818.149,7.668,7.668,0,0,1,1.37.374,5.328,5.328,0,0,1,1,.473,6.446,6.446,0,0,1,.622.423l-1.046,1.569c-.174-.125-.349-.249-.6-.4a4.215,4.215,0,0,0-.822-.4,6.057,6.057,0,0,0-1.071-.3,6.924,6.924,0,0,0-1.295-.125,3.4,3.4,0,0,0-2.266.747,2.424,2.424,0,0,0-.9,1.967,2.46,2.46,0,0,0,.249,1.17,3.016,3.016,0,0,0,.722.9,4.58,4.58,0,0,0,1.046.722c.4.224.822.423,1.27.647.6.3,1.22.6,1.843.9a8.877,8.877,0,0,1,1.668,1.121A5.784,5.784,0,0,1,156.157,28a4.551,4.551,0,0,1,.5,2.266" transform="translate(-109.27 -12.391)" fill="#fff"/>
  <path id="Path_21752" data-name="Path 21752" d="M210.717,31.3v-8.84a3.451,3.451,0,0,0-.5-1.942,2.108,2.108,0,0,0-1.818-.722,3.048,3.048,0,0,0-1.419.324,6.428,6.428,0,0,0-1.145.722,4.2,4.2,0,0,0-.822.8c-.2.249-.349.448-.423.523V31.3H202.6V11.9h1.992v8.317c.149-.174.349-.4.6-.647a5.4,5.4,0,0,1,.9-.722,5.523,5.523,0,0,1,1.22-.573,4.934,4.934,0,0,1,1.569-.249,4.232,4.232,0,0,1,1.768.324,3.532,3.532,0,0,1,1.2.872,3.281,3.281,0,0,1,.672,1.27,5.43,5.43,0,0,1,.224,1.569v9.213h-2.017Z" transform="translate(-152.152 -8.937)" fill="#fff"/>
  <path id="Path_21753" data-name="Path 21753" d="M258.473,21.829h2.042V34.752h-2.042Zm1-5.329a1.446,1.446,0,0,1,1.469,1.469,1.468,1.468,0,0,1-.423,1.046A1.469,1.469,0,0,1,258,17.969a1.468,1.468,0,0,1,.423-1.046,1.336,1.336,0,0,1,1.046-.423" transform="translate(-193.758 -12.391)" fill="#fff"/>
  <path id="Path_21754" data-name="Path 21754" d="M293.117,49.847v-8.84a3.451,3.451,0,0,0-.5-1.942,2.108,2.108,0,0,0-1.818-.722,3.048,3.048,0,0,0-1.419.324,6.429,6.429,0,0,0-1.145.722,4.2,4.2,0,0,0-.822.8c-.2.249-.349.448-.423.523v9.138H285V36.924h1.992v1.868c.149-.174.349-.4.6-.647a5.4,5.4,0,0,1,.9-.722,5.523,5.523,0,0,1,1.22-.573,4.934,4.934,0,0,1,1.569-.249,4.232,4.232,0,0,1,1.768.324,3.532,3.532,0,0,1,1.2.872,3.281,3.281,0,0,1,.672,1.27,5.43,5.43,0,0,1,.224,1.569v9.213Z" transform="translate(-214.035 -27.487)" fill="#fff"/>
  <rect id="Rectangle_3056" data-name="Rectangle 3056" width="1.992" height="19.397" transform="translate(98.505 2.963)" fill="#fff"/>
  <path id="Path_21755" data-name="Path 21755" d="M424.714,41.779a5.415,5.415,0,0,0-.2-1.295,3.36,3.36,0,0,0-.548-1.12,2.728,2.728,0,0,0-.971-.772,3.254,3.254,0,0,0-1.444-.274,3.189,3.189,0,0,0-2.465.971,4.91,4.91,0,0,0-1.145,2.515h6.773Zm-6.9,1.569a10.125,10.125,0,0,0,.249,1.967,4.927,4.927,0,0,0,.722,1.643,3.453,3.453,0,0,0,1.27,1.121,4.009,4.009,0,0,0,1.892.423,6.863,6.863,0,0,0,1.27-.125c.374-.1.722-.2,1.021-.3a8.121,8.121,0,0,0,.8-.374,4.279,4.279,0,0,0,.548-.349l.822,1.544c-.174.1-.374.249-.647.4a5.643,5.643,0,0,1-.946.423,10.592,10.592,0,0,1-1.295.349,7.959,7.959,0,0,1-1.619.149,6.142,6.142,0,0,1-2.714-.548,5.431,5.431,0,0,1-1.942-1.469,6.383,6.383,0,0,1-1.17-2.191,9.36,9.36,0,0,1-.374-2.689,8.3,8.3,0,0,1,.423-2.664,6.08,6.08,0,0,1,1.2-2.117,5.813,5.813,0,0,1,1.867-1.419A5.535,5.535,0,0,1,421.6,36.6a5.47,5.47,0,0,1,2.341.5,4.534,4.534,0,0,1,1.693,1.37,5.674,5.674,0,0,1,.946,2.117,8.19,8.19,0,0,1,.149,2.739h-8.914Z" transform="translate(-312.19 -27.487)" fill="#fff"/>
  <path id="Path_21756" data-name="Path 21756" d="M478.7,38.766c-.075-.025-.2-.075-.374-.125a2.954,2.954,0,0,0-.772-.075,2.609,2.609,0,0,0-1.32.349,4.519,4.519,0,0,0-1,.8,4.048,4.048,0,0,0-.647.9c-.149.3-.249.473-.3.6v8.665H472.3V36.924h1.992v2.017a7.692,7.692,0,0,1,.5-.722,4.337,4.337,0,0,1,.747-.772,3.654,3.654,0,0,1,1-.6,3.363,3.363,0,0,1,1.245-.249,3.041,3.041,0,0,1,.921.1,4.582,4.582,0,0,0,.448.149Z" transform="translate(-354.697 -27.487)" fill="#fff"/>
  <path id="Path_21757" data-name="Path 21757" d="M347.136,51.166a2.232,2.232,0,0,1-1.1,1.27,6.129,6.129,0,0,1-3.162.722,4.071,4.071,0,0,1-2.565-.647,2.15,2.15,0,0,1-.7-.971,1.718,1.718,0,0,1-.1-.623v-.149a3.084,3.084,0,0,1,1.768-2.565,10.105,10.105,0,0,0,1.27.1l1.295.075c.374.025.772.05,1.17.075a3.719,3.719,0,0,1,1.1.249,1.79,1.79,0,0,1,.8.623,1.963,1.963,0,0,1,.3,1v.174a1.518,1.518,0,0,1-.075.672m-7.445-9.96a2.923,2.923,0,0,1,3.187-3.113,2.96,2.96,0,0,1,3.212,3.113,3.023,3.023,0,0,1-.847,2.241,3.646,3.646,0,0,1-4.731,0,3.19,3.19,0,0,1-.822-2.241m8.939,6.922a3.755,3.755,0,0,0-1.693-1.121,8.758,8.758,0,0,0-2.216-.4c-.8-.05-1.569-.075-2.266-.125a3.854,3.854,0,0,1-1.32-.274.783.783,0,0,1-.548-.747,3.972,3.972,0,0,0,.871.3,6.761,6.761,0,0,0,1.444.149,5.992,5.992,0,0,0,2.166-.374,4.921,4.921,0,0,0,1.643-1,4.5,4.5,0,0,0,1.046-1.494,4.667,4.667,0,0,0,.373-1.892,4.5,4.5,0,0,0-.946-2.864h2.042V36.724h-4.283a6.684,6.684,0,0,0-4.258.05,5.307,5.307,0,0,0-1.668,1,4.5,4.5,0,0,0-1.046,1.494,4.668,4.668,0,0,0-.374,1.892,4.611,4.611,0,0,0,.6,2.341,4.333,4.333,0,0,0,.847,1.046.344.344,0,0,0-.075.1,1.851,1.851,0,0,0-.4,1.17,3.388,3.388,0,0,0,.1.747,1.868,1.868,0,0,0,.2.448,2.3,2.3,0,0,0,.872.722,4.439,4.439,0,0,0-.9.623,4.222,4.222,0,0,0-.722.772,3.174,3.174,0,0,0-.622,1.942,3.38,3.38,0,0,0,.075.722,2.724,2.724,0,0,0,.349.921,3.441,3.441,0,0,0,1.121,1.121,4.767,4.767,0,0,0,1.668.647,10.78,10.78,0,0,0,2.067.2,9.924,9.924,0,0,0,2.44-.3,7.055,7.055,0,0,0,2.067-.847,4.6,4.6,0,0,0,1.419-1.345,3.086,3.086,0,0,0,.473-1.2,4.835,4.835,0,0,0,.05-.6,3.044,3.044,0,0,0-.6-2.266" transform="translate(-253.462 -27.336)" fill="#fff"/>
</svg>
