<svg xmlns="http://www.w3.org/2000/svg" width="18.583" height="18.584" viewBox="0 0 18.583 18.584">
  <g id="Group_1230" data-name="Group 1230" transform="translate(0 0)">
    <path id="Path_4" data-name="Path 4" d="M1110.646,507.945h-8.326a5.134,5.134,0,0,0-5.128,5.128V521.4a5.133,5.133,0,0,0,5.128,5.128h8.326a5.134,5.134,0,0,0,5.128-5.128v-8.327a5.134,5.134,0,0,0-5.128-5.128Zm3.48,13.455a3.483,3.483,0,0,1-3.48,3.48h-8.326a3.483,3.483,0,0,1-3.479-3.48v-8.327a3.483,3.483,0,0,1,3.479-3.479h8.326a3.483,3.483,0,0,1,3.48,3.479Zm0,0" transform="translate(-1097.192 -507.946)" fill="#fff"/>
    <path id="Path_5" data-name="Path 5" d="M1112.829,519.157a4.427,4.427,0,1,0,4.427,4.427,4.432,4.432,0,0,0-4.427-4.427Zm0,7.33a2.9,2.9,0,1,1,2.9-2.9,2.906,2.906,0,0,1-2.9,2.9Zm0,0" transform="translate(-1103.538 -514.292)" fill="#fff"/>
    <path id="Path_6" data-name="Path 6" d="M1131.041,515.676a1.306,1.306,0,1,0,.923.382,1.31,1.31,0,0,0-.923-.382Zm0,0" transform="translate(-1116.82 -512.608)" fill="#fff"/>
  </g>
</svg>
