<svg xmlns="http://www.w3.org/2000/svg" width="18.773" height="17.939" viewBox="0 0 18.773 17.939">
  <g id="Group_1213" data-name="Group 1213" transform="translate(0)">
    <path id="Path_179" data-name="Path 179" d="M1189.353,518.8v6.941h-4.024v-6.476c0-1.627-.581-2.737-2.038-2.737a2.2,2.2,0,0,0-2.065,1.472,2.765,2.765,0,0,0-.133.981v6.76h-4.025s.054-10.969,0-12.1h4.025v1.715c-.008.013-.019.027-.026.039h.026v-.039a4,4,0,0,1,3.627-2c2.648,0,4.633,1.73,4.633,5.447Zm-16.5-11a2.1,2.1,0,1,0-.053,4.183h.027a2.1,2.1,0,1,0,.026-4.183Zm-2.038,17.939h4.023v-12.1h-4.023Zm0,0" transform="translate(-1170.58 -507.806)" fill="#fff"/>
  </g>
</svg>
