<svg xmlns="http://www.w3.org/2000/svg" width="35" height="35" viewBox="0 0 35 35">
  <g id="Group_5008" data-name="Group 5008" transform="translate(-324 -27)">
    <rect id="Rectangle_2971" data-name="Rectangle 2971" width="35" height="35" rx="3" transform="translate(324 27)" fill="#3cc5ed"/>
    <g id="Group_5005" data-name="Group 5005" transform="translate(333 38)">
      <path id="Path_21771" data-name="Path 21771" d="M17.212,7.234H.748a.748.748,0,1,1,0-1.5H17.212a.748.748,0,0,1,0,1.5Zm0-5.737H.748a.748.748,0,0,1,0-1.5H17.212a.748.748,0,0,1,0,1.5Zm0,11.475H.748a.748.748,0,1,1,0-1.5H17.212a.748.748,0,1,1,0,1.5Zm0,0" fill="#fff"/>
    </g>
  </g>
</svg>
