<svg xmlns="http://www.w3.org/2000/svg" width="42" height="42" viewBox="0 0 42 42">
  <g id="Group_4379" data-name="Group 4379" transform="translate(15.682)">
    <rect id="Rectangle_2971" data-name="Rectangle 2971" width="42" height="42" rx="3" transform="translate(-15.682)" fill="#323639" opacity="0.1"/>
    <path id="Path_21665" data-name="Path 21665" d="M181.1,109.467a6.431,6.431,0,0,0-1.9,2.967c.027,2.15,2.054,4.811,4.49,7.244s5.229,4.808,7.27,4.5a6.478,6.478,0,0,0,2.988-1.91,1.03,1.03,0,0,0-.007-1.358l-2.075-2.071a1.374,1.374,0,0,0-1.508-.116l-1.4,1.022c-.745.635-2.316-.923-3.358-1.964s-2.627-2.448-1.958-3.359l1.021-1.391a1.368,1.368,0,0,0-.1-1.484l-2.066-2.063a1.042,1.042,0,0,0-1.4-.015Z" transform="translate(-180.881 -95.204)" fill="#323639"/>
  </g>
</svg>
