<svg id="youtube-svgrepo-com" xmlns="http://www.w3.org/2000/svg" width="25.918" height="18.34" viewBox="0 0 25.918 18.34">
  <path id="Path_20989" data-name="Path 20989" d="M20.535,67.393H5.383A5.383,5.383,0,0,0,0,72.776V80.35a5.383,5.383,0,0,0,5.383,5.383H20.535a5.383,5.383,0,0,0,5.383-5.383V72.776A5.383,5.383,0,0,0,20.535,67.393Zm-3.64,9.539-7.087,3.38a.285.285,0,0,1-.407-.257V73.083a.285.285,0,0,1,.413-.254L16.9,76.421A.285.285,0,0,1,16.895,76.932Z" transform="translate(0 -67.393)" fill="#fff"/>
</svg>
